<svg xmlns="http://www.w3.org/2000/svg" width="11" height="15" viewBox="0 0 11 15">
  <path id="Icon_awesome-question" data-name="Icon awesome-question" d="M7.315,0a6.17,6.17,0,0,0-5.38,2.667A.675.675,0,0,0,2.1,3.63l1.348.958a.785.785,0,0,0,1.039-.122A3.071,3.071,0,0,1,7.071,3.018c.962,0,2.151.58,2.151,1.454,0,.661-.582,1-1.531,1.5-1.107.582-2.573,1.306-2.573,3.117v.287a.728.728,0,0,0,.75.7H8.134a.728.728,0,0,0,.75-.7V9.206C8.884,7.95,12.8,7.9,12.8,4.5,12.8,1.941,9.968,0,7.315,0ZM7,10.941a2.1,2.1,0,0,0-2.165,2.029A2.1,2.1,0,0,0,7,15a2.1,2.1,0,0,0,2.165-2.029A2.1,2.1,0,0,0,7,10.941Z" transform="translate(-1.8)" fill="#f9f9f9"/>
</svg>
