<svg xmlns="http://www.w3.org/2000/svg" width="10.658" height="11.096" viewBox="0 0 10.658 11.096">
  <path id="Icon_awesome-leaf" data-name="Icon awesome-leaf" d="M10.11.209A.273.273,0,0,0,9.586.183a3.13,3.13,0,0,1-2.774,1.9H5.332c-1.962,0-3.553,1.864-3.553,4.16,0,.152.015.3.028.444a7.986,7.986,0,0,1,5.3-1.831.351.351,0,0,1,0,.693A7.313,7.313,0,0,0,.047,10.14a.739.739,0,0,0,.324.9.566.566,0,0,0,.774-.375A5.719,5.719,0,0,1,2.475,8.7a3.368,3.368,0,0,0,3.236,1.673c2.905-.247,4.95-3.3,4.95-7.034A9.049,9.049,0,0,0,10.11.209Z" transform="translate(-0.004 0.002)" fill="#f9f9f9"/>
</svg>
